<svg width="257" height="50" xmlns="http://www.w3.org/2000/svg">

 <g>
  <title>background</title>
  <rect fill="none" id="canvas_background" height="52" width="259" y="-1" x="-1"/>
 </g>
 <g>
  <title>Layer 1</title>
  <g stroke="null" id="svgg">
   <path fill-rule="evenodd" fill="#333333" d="m245.070542,15.87341c-1.902868,3.230731 -3.67547,6.754065 -3.939504,7.831213c-0.770392,3.146012 -4.273574,2.797167 -5.354924,-0.533946c-0.444726,-1.370462 -1.230526,-2.491749 -1.746688,-2.491749c-1.300562,0 -5.256874,5.23481 -5.256874,6.956253c0,0.776714 -0.47274,1.811146 -1.050534,2.298817c-2.076556,1.752056 -0.966492,2.906804 6.128117,6.373895l7.178652,3.509095l-3.67687,0.042004c-2.783216,0.032037 -3.67687,0.301858 -3.67687,1.109896c0,1.401787 20.205278,1.601839 21.570972,0.213579c2.038737,-2.072424 1.001509,-4.482301 -2.363702,-5.491816c-2.229934,-0.669213 -3.396027,-1.474404 -3.83445,-2.647662c-0.346676,-0.926931 -0.953885,-1.685135 -1.348186,-1.685135c-0.395001,0 -0.717865,-0.480552 -0.717865,-1.067893c0,-0.587341 -0.31516,-1.067893 -0.700356,-1.067893c-0.385196,0 -0.700356,-0.480552 -0.700356,-1.067893c0,-0.587341 -0.31516,-1.067893 -0.700356,-1.067893c-1.823728,0 -0.416712,-4.140576 3.181018,-9.359723c5.067077,-7.350661 5.192441,-7.726559 2.571008,-7.726559c-1.886059,0 -2.45685,0.603003 -5.562229,5.87341m-8.410578,-0.791664c-1.502264,3.473499 -1.547087,4.885253 -0.156179,4.885253c0.879647,0 3.474467,-5.295324 3.474467,-7.090807c0,-2.629152 -1.722876,-1.483659 -3.318288,2.205554m-226.8699,-1.776973c-8.033786,1.793348 -6.533623,11.077606 2.1627,13.379983c5.017352,1.328458 7.413271,2.831339 7.413271,4.648893c0,3.474211 -6.679998,4.725069 -11.425612,2.140057c-4.537608,-2.472527 -5.754127,0.169439 -1.260641,2.736653c3.057055,1.74636 9.603985,2.138633 12.192502,0.730439c7.295611,-3.969001 2.287363,-13.414155 -7.112818,-13.414155c-4.356916,0 -4.938912,-6.928487 -0.606509,-7.226785c3.081567,-0.212155 5.672886,0.248463 7.229077,1.285031c1.444135,0.961815 1.649339,0.931914 2.320981,-0.344573c1.367796,-2.597827 -5.618958,-5.117342 -10.912951,-3.93554m41.364441,0.032037c-6.420866,1.284319 -10.34076,12.819695 -6.383747,18.788503c6.537826,9.862345 19.829887,6.244324 20.674516,-5.627082c0.638725,-8.980977 -5.753427,-14.867913 -14.290769,-13.161421m62.324002,0.533946c-6.601558,2.92033 -5.595146,10.574273 1.639534,12.472986c7.264795,1.906544 8.937246,3.196559 8.143742,6.282056c-0.680046,2.642678 -9.412788,3.00505 -11.477438,0.476992c-1.384604,-1.696525 -3.473067,-0.831532 -3.473067,1.438807c0,0.960391 6.910415,3.223612 9.843507,3.223612c11.887147,0 12.245029,-11.654268 0.424416,-13.831345c-5.836069,-1.075012 -7.809672,-3.719826 -4.947317,-6.629478c1.501564,-1.526375 7.585558,-1.405347 9.147353,0.181542c1.020419,1.03728 1.251537,1.045111 2.205422,0.076176c3.029741,-3.079802 -6.196752,-6.040001 -11.506153,-3.691349m48.068951,-0.528251c-5.179134,1.072164 -8.844799,7.151321 -8.192067,13.585018c1.580004,15.555636 21.839909,14.16524 21.839909,-1.497897c0,-8.770958 -5.621059,-13.748762 -13.647842,-12.087121m41.662092,-0.045563c-8.235489,1.917935 -7.007765,10.508776 1.921778,13.446904c5.852877,1.925766 6.80256,2.585724 6.82217,4.741443c0.030816,3.479906 -5.942523,4.588379 -10.71475,1.988416c-3.372215,-1.837487 -5.533515,-0.667789 -3.10678,1.680863c3.482171,3.370981 12.194603,3.672839 15.286676,0.529675c4.843664,-4.923697 1.858045,-10.151387 -6.707312,-11.742547c-5.343018,-0.992428 -7.166745,-3.353895 -4.919302,-6.370336c1.281652,-1.720019 7.125424,-1.826808 9.603985,-0.175846c1.84894,1.231636 2.669058,0.926931 2.669058,-0.992428c0,-2.086662 -6.835477,-4.041618 -10.855522,-3.106144m-179.641377,1.686558c0,1.25157 0.467138,1.423857 3.851959,1.423857l3.851959,0l0,10.678926l0,10.678926l1.750891,0l1.750891,0l0,-10.678926l0,-10.678926l4.202137,0c3.735,0 4.202137,-0.158048 4.202137,-1.423857c0,-1.356224 -0.467138,-1.423857 -9.804987,-1.423857c-9.33785,0 -9.804987,0.067633 -9.804987,1.423857m45.523156,10.678926c0,11.627927 0.054628,12.102783 1.400712,12.102783c1.245233,0 1.400712,-0.474856 1.400712,-4.271571l0,-4.271571l3.435247,0c3.358208,0 3.478669,0.076176 5.382238,3.38166c2.466655,4.285097 3.339299,5.161481 5.139914,5.161481c1.961698,0 1.855944,-0.474144 -1.10166,-4.939359c-2.518481,-3.801698 -2.533889,-3.867195 -1.153487,-5.003433c3.550106,-2.921754 4.105488,-8.552396 1.192006,-12.07217c-1.799916,-2.174941 -1.862948,-2.190604 -8.754453,-2.190604l-6.941231,0l0,12.102783m21.711044,0l0,12.102783l8.404275,0c7.937137,0 8.404275,-0.079024 8.404275,-1.423857c0,-1.32917 -0.467138,-1.423857 -7.003562,-1.423857l-7.003562,0l0,-4.271571l0,-4.271571l5.60285,0c5.135712,0 5.60285,-0.118892 5.60285,-1.423857c0,-1.304965 -0.467138,-1.423857 -5.60285,-1.423857l-5.60285,0l0,-3.559642l0,-3.559642l6.653384,0c6.186247,0 6.653384,-0.09967 6.653384,-1.423857c0,-1.341273 -0.467138,-1.423857 -8.054097,-1.423857l-8.054097,0l0,12.102783m39.21995,0l0,12.102783l1.750891,0c1.721476,0 1.750891,-0.094686 1.750891,-5.695427l0,-5.695427l6.303206,0l6.303206,0l0,5.695427c0,5.600741 0.029415,5.695427 1.750891,5.695427l1.750891,0l0,-12.102783l0,-12.102783l-1.750891,0c-1.701165,0 -1.750891,0.142386 -1.750891,4.983499l0,4.983499l-6.303206,0l-6.303206,0l0,-4.983499c0,-4.841113 -0.049725,-4.983499 -1.750891,-4.983499l-1.750891,0l0,12.102783m49.024937,0l0,12.102783l8.404275,0c7.937137,0 8.404275,-0.079024 8.404275,-1.423857c0,-1.324187 -0.467138,-1.423857 -6.653384,-1.423857l-6.653384,0l0,-4.271571l0,-4.271571l5.60285,0c5.135712,0 5.60285,-0.118892 5.60285,-1.423857c0,-1.304965 -0.467138,-1.423857 -5.60285,-1.423857l-5.60285,0l0,-3.532589l0,-3.533301l6.470591,-0.204323c5.510403,-0.174422 6.504909,-0.390137 6.70451,-1.45091c0.212908,-1.131254 -0.545578,-1.245875 -8.221482,-1.245875l-8.455401,0l0,12.102783m-119.596334,-7.213971c4.016543,4.852504 4.02985,9.359723 0.042021,14.076961c-5.182636,6.131128 -14.895877,-0.700538 -13.133781,-9.236559c1.313868,-6.363928 9.365864,-9.341213 13.091759,-4.840401m22.727261,-0.493366c3.944406,3.767525 1.152086,7.707337 -5.463479,7.707337l-4.821953,0l0,-4.627535l0,-4.627535l4.332404,0c3.483572,0 4.648965,0.303282 5.953028,1.547732m88.001163,1.492202c5.254073,6.614527 0.31446,16.669092 -7.460895,15.186145c-2.490467,-0.474856 -4.474576,-2.364314 -5.907505,-5.622811c-4.001135,-9.100581 7.308217,-17.191648 13.3684,-9.563335m66.523338,12.964929c1.223522,-0.252735 3.219538,-0.806615 4.434656,-1.231636c1.841937,-0.642871 2.414128,-0.563135 3.44015,0.479128c1.386005,1.408906 0.761988,2.162127 -2.498171,3.017865c-0.96299,0.252735 -1.908471,0.679892 -2.101069,0.949001c-0.421614,0.589477 -9.783276,-3.67711 -9.795883,-4.465215c-0.004902,-0.303282 0.959488,-0.042716 2.14309,0.57951c1.402113,0.736846 2.928189,0.97107 4.377227,0.671349m-6.529421,8.497578c0,0.619378 0.498654,1.126983 1.108664,1.126983c1.236829,0 1.02182,-1.532782 -0.276641,-1.972754c-0.458033,-0.1552 -0.832023,0.225681 -0.832023,0.845771" id="path0"/>
  </g>
 </g>
</svg>